<svg width="127" height="127" viewBox="0 0 127 127" fill="none" xmlns="http://www.w3.org/2000/svg">
<g id="teenyicons:tick-circle-solid" clip-path="url(#clip0_927_1502)">
<path id="Vector" fill-rule="evenodd" clip-rule="evenodd" d="M0.326172 63.5C0.326172 46.7914 6.96365 30.7671 18.7784 18.9523C30.5932 7.13748 46.6175 0.5 63.3262 0.5C80.0348 0.5 96.0591 7.13748 107.874 18.9523C119.689 30.7671 126.326 46.7914 126.326 63.5C126.326 80.2086 119.689 96.2329 107.874 108.048C96.0591 119.863 80.0348 126.5 63.3262 126.5C46.6175 126.5 30.5932 119.863 18.7784 108.048C6.96365 96.2329 0.326172 80.2086 0.326172 63.5ZM59.731 90.464L96.0022 45.1208L89.4502 39.8792L58.5214 78.5276L36.6142 60.2744L31.2382 66.7256L59.731 90.4724V90.464Z" fill="#42EC18"/>
</g>
<defs>
<clipPath id="clip0_927_1502">
<rect width="126" height="126" fill="white" transform="translate(0.326172 0.5)"/>
</clipPath>
</defs>
</svg>
